<svg xmlns="http://www.w3.org/2000/svg" xmlns:xlink="http://www.w3.org/1999/xlink" width="157" zoomAndPan="magnify" viewBox="0 0 117.75 118.499997" height="158" preserveAspectRatio="xMidYMid meet" version="1.0"><defs><g/><clipPath id="f9b4917c7d"><path d="M 0.121094 0 L 116.632812 0 L 116.632812 117.253906 L 0.121094 117.253906 Z M 0.121094 0 " clip-rule="nonzero"/></clipPath></defs><g clip-path="url(#f9b4917c7d)"><path fill="#222a34" d="M 0.144531 116.722656 L 39.261719 116.722656 L 39.261719 78.230469 C 39.261719 99.824219 56.785156 117.347656 78.375 117.347656 L 116.867188 117.347656 L 116.867188 78.230469 L 77.75 78.230469 C 99.03125 78.230469 116.867188 60.707031 116.867188 39.117188 C 116.867188 17.523438 99.03125 0 77.75 0 L 0.144531 0 L 0.144531 39.117188 L 39.261719 39.117188 C 17.667969 39.117188 0.144531 56.640625 0.144531 78.230469 Z M 39.261719 78.230469 L 39.261719 39.117188 L 77.75 39.117188 L 77.75 78.230469 Z M 39.261719 78.230469 " fill-opacity="1" fill-rule="evenodd"/></g><g fill="#222a34" fill-opacity="1"><g transform="translate(92.604978, 56.323245)"><g/></g></g><g fill="#222a34" fill-opacity="1"><g transform="translate(93.366764, 56.323245)"><g/></g></g><g fill="#222a34" fill-opacity="1"><g transform="translate(94.12855, 56.323245)"><g/></g></g><g fill="#222a34" fill-opacity="1"><g transform="translate(94.890336, 56.323245)"><g/></g></g><g fill="#222a34" fill-opacity="1"><g transform="translate(95.653306, 56.323245)"><g><path d="M 0.09375 -0.109375 L 0.234375 -0.109375 L 0.234375 -0.5 L 0.25 -0.578125 L 0.203125 -0.515625 L 0.125 -0.453125 L 0.0625 -0.53125 L 0.296875 -0.71875 L 0.359375 -0.71875 L 0.359375 -0.109375 L 0.5 -0.109375 L 0.5 0 L 0.09375 0 Z M 0.09375 -0.109375 "/></g></g></g></svg>