<svg xmlns="http://www.w3.org/2000/svg" xmlns:xlink="http://www.w3.org/1999/xlink" width="378" zoomAndPan="magnify" viewBox="0 0 283.5 121.500001" height="162" preserveAspectRatio="xMidYMid meet" version="1.0"><defs><g/><clipPath id="05265758cd"><path d="M 0.332031 0 L 116.851562 0 L 116.851562 117.265625 L 0.332031 117.265625 Z M 0.332031 0 " clip-rule="nonzero"/></clipPath></defs><g clip-path="url(#05265758cd)"><path fill="#222a34" d="M 0.351562 116.734375 L 39.472656 116.734375 L 39.472656 78.242188 C 39.472656 99.835938 57 117.359375 78.59375 117.359375 L 117.089844 117.359375 L 117.089844 78.242188 L 77.96875 78.242188 C 99.25 78.242188 117.089844 60.714844 117.089844 39.121094 C 117.089844 17.527344 99.25 0 77.96875 0 L 0.351562 0 L 0.351562 39.121094 L 39.472656 39.121094 C 17.878906 39.121094 0.351562 56.644531 0.351562 78.242188 Z M 39.472656 78.242188 L 39.472656 39.121094 L 77.96875 39.121094 L 77.96875 78.242188 Z M 39.472656 78.242188 " fill-opacity="1" fill-rule="evenodd"/></g><g fill="#222a34" fill-opacity="1"><g transform="translate(142.684152, 92.900129)"><g><path d="M 2.015625 -23.234375 C 2.523438 -23.328125 3.078125 -23.410156 3.671875 -23.484375 C 4.265625 -23.566406 4.859375 -23.628906 5.453125 -23.671875 C 6.046875 -23.710938 6.617188 -23.742188 7.171875 -23.765625 C 7.734375 -23.796875 8.25 -23.8125 8.71875 -23.8125 C 9.8125 -23.8125 10.890625 -23.707031 11.953125 -23.5 C 13.015625 -23.300781 13.960938 -22.957031 14.796875 -22.46875 C 15.640625 -21.976562 16.3125 -21.300781 16.8125 -20.4375 C 17.320312 -19.570312 17.578125 -18.492188 17.578125 -17.203125 C 17.578125 -15.273438 17.128906 -13.707031 16.234375 -12.5 C 15.335938 -11.300781 14.140625 -10.46875 12.640625 -10 L 14.28125 -8.953125 L 19.65625 0 L 14.34375 0 L 9.015625 -9.1875 L 6.609375 -9.625 L 6.609375 0 L 2.015625 0 Z M 9.046875 -19.71875 C 8.578125 -19.71875 8.113281 -19.707031 7.65625 -19.6875 C 7.195312 -19.664062 6.847656 -19.617188 6.609375 -19.546875 L 6.609375 -12.734375 L 8.546875 -12.734375 C 9.828125 -12.734375 10.84375 -13.023438 11.59375 -13.609375 C 12.351562 -14.191406 12.734375 -15.15625 12.734375 -16.5 C 12.734375 -17.5 12.421875 -18.285156 11.796875 -18.859375 C 11.171875 -19.429688 10.253906 -19.71875 9.046875 -19.71875 Z M 9.046875 -19.71875 "/></g></g></g><g fill="#222a34" fill-opacity="1"><g transform="translate(180.042979, 92.900129)"><g><path d="M 2.015625 -23.46875 L 15.921875 -23.46875 L 15.921875 -19.375 L 6.609375 -19.375 L 6.609375 -13.921875 L 15.09375 -13.921875 L 15.09375 -9.828125 L 6.609375 -9.828125 L 6.609375 -4.09375 L 16.09375 -4.09375 L 16.09375 0 L 2.015625 0 Z M 2.015625 -23.46875 "/></g></g></g><g fill="#222a34" fill-opacity="1"><g transform="translate(214.719409, 92.900129)"><g><path d="M 12.140625 -6.296875 C 12.140625 -7.015625 11.875 -7.597656 11.34375 -8.046875 C 10.820312 -8.492188 10.164062 -8.898438 9.375 -9.265625 C 8.582031 -9.640625 7.722656 -10.019531 6.796875 -10.40625 C 5.867188 -10.800781 5.003906 -11.28125 4.203125 -11.84375 C 3.410156 -12.414062 2.75 -13.125 2.21875 -13.96875 C 1.695312 -14.820312 1.4375 -15.910156 1.4375 -17.234375 C 1.4375 -18.367188 1.625 -19.351562 2 -20.1875 C 2.382812 -21.03125 2.925781 -21.734375 3.625 -22.296875 C 4.332031 -22.859375 5.164062 -23.269531 6.125 -23.53125 C 7.09375 -23.800781 8.171875 -23.9375 9.359375 -23.9375 C 10.722656 -23.9375 12.003906 -23.816406 13.203125 -23.578125 C 14.410156 -23.347656 15.410156 -23.007812 16.203125 -22.5625 L 14.75 -18.703125 C 14.257812 -19.023438 13.519531 -19.3125 12.53125 -19.5625 C 11.550781 -19.820312 10.492188 -19.953125 9.359375 -19.953125 C 8.285156 -19.953125 7.460938 -19.738281 6.890625 -19.3125 C 6.316406 -18.882812 6.03125 -18.316406 6.03125 -17.609375 C 6.03125 -16.929688 6.289062 -16.367188 6.8125 -15.921875 C 7.34375 -15.472656 8.003906 -15.054688 8.796875 -14.671875 C 9.597656 -14.296875 10.460938 -13.90625 11.390625 -13.5 C 12.316406 -13.101562 13.175781 -12.617188 13.96875 -12.046875 C 14.757812 -11.484375 15.414062 -10.78125 15.9375 -9.9375 C 16.46875 -9.101562 16.734375 -8.0625 16.734375 -6.8125 C 16.734375 -5.550781 16.523438 -4.46875 16.109375 -3.5625 C 15.691406 -2.664062 15.109375 -1.914062 14.359375 -1.3125 C 13.617188 -0.707031 12.71875 -0.257812 11.65625 0.03125 C 10.59375 0.320312 9.421875 0.46875 8.140625 0.46875 C 6.472656 0.46875 5 0.3125 3.71875 0 C 2.445312 -0.3125 1.507812 -0.625 0.90625 -0.9375 L 2.375 -4.859375 C 2.625 -4.722656 2.941406 -4.578125 3.328125 -4.421875 C 3.722656 -4.265625 4.164062 -4.117188 4.65625 -3.984375 C 5.15625 -3.847656 5.675781 -3.734375 6.21875 -3.640625 C 6.769531 -3.554688 7.332031 -3.515625 7.90625 -3.515625 C 9.269531 -3.515625 10.316406 -3.742188 11.046875 -4.203125 C 11.773438 -4.660156 12.140625 -5.359375 12.140625 -6.296875 Z M 12.140625 -6.296875 "/></g></g></g><g fill="#222a34" fill-opacity="1"><g transform="translate(249.664075, 92.900129)"><g><path d="M 2.484375 -23.46875 L 7.078125 -23.46875 L 7.078125 0 L 2.484375 0 Z M 2.484375 -23.46875 "/></g></g></g><g fill="#222a34" fill-opacity="1"><g transform="translate(137.685685, 113.541782)"><g><path d="M 0.84375 -9.796875 L 6.640625 -9.796875 L 6.640625 -8.078125 L 2.75 -8.078125 L 2.75 -5.796875 L 6.296875 -5.796875 L 6.296875 -4.09375 L 2.75 -4.09375 L 2.75 -1.703125 L 6.71875 -1.703125 L 6.71875 0 L 0.84375 0 Z M 0.84375 -9.796875 "/></g></g></g><g fill="#222a34" fill-opacity="1"><g transform="translate(152.13598, 113.541782)"><g><path d="M 7.03125 0 L 0.84375 0 L 0.84375 -9.796875 L 2.75 -9.796875 L 2.75 -1.703125 L 7.03125 -1.703125 Z M 7.03125 0 "/></g></g></g><g fill="#222a34" fill-opacity="1"><g transform="translate(166.474422, 113.541782)"><g><path d="M 0.84375 -9.796875 L 6.640625 -9.796875 L 6.640625 -8.078125 L 2.75 -8.078125 L 2.75 -5.796875 L 6.296875 -5.796875 L 6.296875 -4.09375 L 2.75 -4.09375 L 2.75 -1.703125 L 6.71875 -1.703125 L 6.71875 0 L 0.84375 0 Z M 0.84375 -9.796875 "/></g></g></g><g fill="#222a34" fill-opacity="1"><g transform="translate(180.924716, 113.541782)"><g><path d="M 7.46875 -0.40625 C 7.164062 -0.1875 6.785156 -0.03125 6.328125 0.0625 C 5.867188 0.15625 5.394531 0.203125 4.90625 0.203125 C 4.320312 0.203125 3.765625 0.113281 3.234375 -0.0625 C 2.710938 -0.25 2.25 -0.546875 1.84375 -0.953125 C 1.445312 -1.359375 1.128906 -1.882812 0.890625 -2.53125 C 0.648438 -3.1875 0.53125 -3.972656 0.53125 -4.890625 C 0.53125 -5.847656 0.660156 -6.648438 0.921875 -7.296875 C 1.191406 -7.953125 1.535156 -8.476562 1.953125 -8.875 C 2.378906 -9.269531 2.851562 -9.550781 3.375 -9.71875 C 3.90625 -9.894531 4.429688 -9.984375 4.953125 -9.984375 C 5.515625 -9.984375 5.988281 -9.945312 6.375 -9.875 C 6.757812 -9.800781 7.078125 -9.710938 7.328125 -9.609375 L 6.953125 -7.984375 C 6.734375 -8.085938 6.476562 -8.160156 6.1875 -8.203125 C 5.894531 -8.253906 5.539062 -8.28125 5.125 -8.28125 C 4.34375 -8.28125 3.71875 -8.003906 3.25 -7.453125 C 2.78125 -6.898438 2.546875 -6.046875 2.546875 -4.890625 C 2.546875 -4.390625 2.597656 -3.929688 2.703125 -3.515625 C 2.816406 -3.097656 2.988281 -2.742188 3.21875 -2.453125 C 3.445312 -2.160156 3.734375 -1.929688 4.078125 -1.765625 C 4.421875 -1.609375 4.816406 -1.53125 5.265625 -1.53125 C 5.679688 -1.53125 6.03125 -1.570312 6.3125 -1.65625 C 6.601562 -1.738281 6.859375 -1.84375 7.078125 -1.96875 Z M 7.46875 -0.40625 "/></g></g></g><g fill="#222a34" fill-opacity="1"><g transform="translate(195.892317, 113.541782)"><g><path d="M 7.796875 -8.078125 L 4.9375 -8.078125 L 4.9375 0 L 3.015625 0 L 3.015625 -8.078125 L 0.15625 -8.078125 L 0.15625 -9.796875 L 7.796875 -9.796875 Z M 7.796875 -8.078125 "/></g></g></g><g fill="#222a34" fill-opacity="1"><g transform="translate(210.985751, 113.541782)"><g><path d="M 0.84375 -9.6875 C 1.050781 -9.726562 1.28125 -9.765625 1.53125 -9.796875 C 1.78125 -9.828125 2.023438 -9.851562 2.265625 -9.875 C 2.515625 -9.894531 2.753906 -9.90625 2.984375 -9.90625 C 3.222656 -9.914062 3.441406 -9.921875 3.640625 -9.921875 C 4.097656 -9.921875 4.546875 -9.878906 4.984375 -9.796875 C 5.429688 -9.710938 5.828125 -9.566406 6.171875 -9.359375 C 6.523438 -9.160156 6.804688 -8.878906 7.015625 -8.515625 C 7.222656 -8.160156 7.328125 -7.710938 7.328125 -7.171875 C 7.328125 -6.367188 7.140625 -5.71875 6.765625 -5.21875 C 6.390625 -4.71875 5.890625 -4.367188 5.265625 -4.171875 L 5.953125 -3.734375 L 8.1875 0 L 5.984375 0 L 3.765625 -3.828125 L 2.75 -4.015625 L 2.75 0 L 0.84375 0 Z M 3.78125 -8.21875 C 3.582031 -8.21875 3.382812 -8.210938 3.1875 -8.203125 C 3 -8.191406 2.851562 -8.175781 2.75 -8.15625 L 2.75 -5.3125 L 3.5625 -5.3125 C 4.09375 -5.3125 4.515625 -5.429688 4.828125 -5.671875 C 5.148438 -5.921875 5.3125 -6.320312 5.3125 -6.875 C 5.3125 -7.300781 5.179688 -7.628906 4.921875 -7.859375 C 4.660156 -8.097656 4.28125 -8.21875 3.78125 -8.21875 Z M 3.78125 -8.21875 "/></g></g></g><g fill="#222a34" fill-opacity="1"><g transform="translate(226.554563, 113.541782)"><g><path d="M 1.03125 -9.796875 L 2.953125 -9.796875 L 2.953125 0 L 1.03125 0 Z M 1.03125 -9.796875 "/></g></g></g><g fill="#222a34" fill-opacity="1"><g transform="translate(237.691236, 113.541782)"><g><path d="M 7.46875 -0.40625 C 7.164062 -0.1875 6.785156 -0.03125 6.328125 0.0625 C 5.867188 0.15625 5.394531 0.203125 4.90625 0.203125 C 4.320312 0.203125 3.765625 0.113281 3.234375 -0.0625 C 2.710938 -0.25 2.25 -0.546875 1.84375 -0.953125 C 1.445312 -1.359375 1.128906 -1.882812 0.890625 -2.53125 C 0.648438 -3.1875 0.53125 -3.972656 0.53125 -4.890625 C 0.53125 -5.847656 0.660156 -6.648438 0.921875 -7.296875 C 1.191406 -7.953125 1.535156 -8.476562 1.953125 -8.875 C 2.378906 -9.269531 2.851562 -9.550781 3.375 -9.71875 C 3.90625 -9.894531 4.429688 -9.984375 4.953125 -9.984375 C 5.515625 -9.984375 5.988281 -9.945312 6.375 -9.875 C 6.757812 -9.800781 7.078125 -9.710938 7.328125 -9.609375 L 6.953125 -7.984375 C 6.734375 -8.085938 6.476562 -8.160156 6.1875 -8.203125 C 5.894531 -8.253906 5.539062 -8.28125 5.125 -8.28125 C 4.34375 -8.28125 3.71875 -8.003906 3.25 -7.453125 C 2.78125 -6.898438 2.546875 -6.046875 2.546875 -4.890625 C 2.546875 -4.390625 2.597656 -3.929688 2.703125 -3.515625 C 2.816406 -3.097656 2.988281 -2.742188 3.21875 -2.453125 C 3.445312 -2.160156 3.734375 -1.929688 4.078125 -1.765625 C 4.421875 -1.609375 4.816406 -1.53125 5.265625 -1.53125 C 5.679688 -1.53125 6.03125 -1.570312 6.3125 -1.65625 C 6.601562 -1.738281 6.859375 -1.84375 7.078125 -1.96875 Z M 7.46875 -0.40625 "/></g></g></g><g fill="#222a34" fill-opacity="1"><g transform="translate(252.658834, 113.541782)"><g><path d="M 5.65625 -2.171875 L 2.65625 -2.171875 L 1.921875 0 L 0 0 L 3.53125 -9.859375 L 4.9375 -9.859375 L 8.453125 0 L 6.453125 0 Z M 3.140625 -3.703125 L 5.25 -3.703125 L 4.515625 -5.890625 L 4.21875 -7.421875 L 4.15625 -7.421875 L 3.859375 -5.875 Z M 3.140625 -3.703125 "/></g></g></g><g fill="#222a34" fill-opacity="1"><g transform="translate(268.269587, 113.541782)"><g><path d="M 7.03125 0 L 0.84375 0 L 0.84375 -9.796875 L 2.75 -9.796875 L 2.75 -1.703125 L 7.03125 -1.703125 Z M 7.03125 0 "/></g></g></g></svg>