<svg xmlns="http://www.w3.org/2000/svg" xmlns:xlink="http://www.w3.org/1999/xlink" width="111" zoomAndPan="magnify" viewBox="0 0 83.25 95.249999" height="127" preserveAspectRatio="xMidYMid meet" version="1.0"><defs><clipPath id="1147fa4852"><path d="M 0 26.085938 L 45.375 26.085938 L 45.375 94.152344 L 0 94.152344 Z M 0 26.085938 " clip-rule="nonzero"/></clipPath><clipPath id="67c4d66751"><path d="M 22.6875 26.085938 L 0 26.085938 L 22.6875 94.152344 L 45.375 94.152344 Z M 22.6875 26.085938 " clip-rule="nonzero"/></clipPath><clipPath id="f3916a45c9"><path d="M 36.554688 0.0546875 L 81.933594 0.0546875 L 81.933594 68.117188 L 36.554688 68.117188 Z M 36.554688 0.0546875 " clip-rule="nonzero"/></clipPath><clipPath id="8b20a446e7"><path d="M 59.246094 0.0546875 L 81.933594 0.0546875 L 59.246094 68.117188 L 36.554688 68.117188 Z M 59.246094 0.0546875 " clip-rule="nonzero"/></clipPath></defs><g clip-path="url(#1147fa4852)"><g clip-path="url(#67c4d66751)"><path fill="#22092c" d="M 0 26.085938 L 45.375 26.085938 L 45.375 94.152344 L 0 94.152344 Z M 0 26.085938 " fill-opacity="1" fill-rule="nonzero"/></g></g><g clip-path="url(#f3916a45c9)"><g clip-path="url(#8b20a446e7)"><path fill="#22092c" d="M 36.554688 0.0546875 L 81.933594 0.0546875 L 81.933594 68.117188 L 36.554688 68.117188 Z M 36.554688 0.0546875 " fill-opacity="1" fill-rule="nonzero"/></g></g></svg>